<svg xmlns="http://www.w3.org/2000/svg" viewBox="0 0 200.81 196.57"><defs><style>.cls-1{fill:#97acd5;}.cls-2{fill:#383838;}.cls-3{fill:#91a5d0;}.cls-4,.cls-6{fill:none;stroke-miterlimit:10;}.cls-4{stroke:#1e345e;stroke-width:0.2px;}.cls-5{fill:#1e345e;}.cls-6{stroke:#fdc320;}.cls-7{fill:#eb5e24;}.cls-8{fill:#fdc320;}</style></defs><title>Logo_v3</title><path d="M141.65 93.7c-37.75 63.17-92.8 35.7-92.8 35.7C30.04 123.58 15 102.46 15 102.46l17-2.6c-19.8-7.2-32-45.23-32-45.23l19.38 4.93C6.28 50.26 5.4 0 5.4 0s22.1 15 67.93 45.48c0 0 19.4-42 60.27-45.33-22.1 6.63-38 24.6-38 45.8-.05 23.76 19.8 43.5 46.05 47.75zM141.65 93.7c-4.47 71.75-71.44 75-71.44 75-11.58 40.58-50.84 25-50.84 25l21.68-47.34c74.36 20.87 100.6-52.66 100.6-52.66z" class="cls-1"/><circle cx="121.42" cy="39.48" r="6.93" class="cls-2"/><path d="M141.65 93.7s-26.25 73.53-100.6 52.66l7.78-17s55.07 27.5 92.82-35.66z" class="cls-3"/><path d="M41.05 146.36" class="cls-4"/><path d="M41.05 146.36l7.78-16.96" class="cls-5"/><path d="M152.32 68.46" class="cls-6"/><path d="M141.64 93.7l-2.5-28.73 26.92-2.67c4.2 29.16-24.42 31.4-24.42 31.4z" class="cls-7"/><path d="M200.8 59.18l-34.75 3.13-26.9 2.68L133.5.18s59.18-3.25 67.3 59z" class="cls-8"/></svg>