<?xml version="1.0" encoding="utf-8"?>
<!-- Generator: Adobe Illustrator 15.0.0, SVG Export Plug-In . SVG Version: 6.00 Build 0)  -->
<!DOCTYPE svg PUBLIC "-//W3C//DTD SVG 1.1//EN" "http://www.w3.org/Graphics/SVG/1.1/DTD/svg11.dtd">
<svg version="1.1" id="Calque_1" xmlns="http://www.w3.org/2000/svg" xmlns:xlink="http://www.w3.org/1999/xlink" x="0px" y="0px"
	 width="588.911px" height="519.986px" viewBox="3.185 86.544 588.911 519.986"
	 enable-background="new 3.185 86.544 588.911 519.986" xml:space="preserve">
<g>
	<path fill="#8C8C8C" d="M277.52,92.166c-42.068,42.33-84.143,84.678-126.212,127.003c-42.818,0-85.637,0-128.455,0
		c-10.727,0-19.668,8.941-19.668,19.668c0,69.201,0,138.415,0,207.616c0,10.732,8.941,19.674,19.668,19.674
		c42.818,0,85.637,0,128.455,0c42.069,42.33,84.144,84.654,126.212,126.986c12.114,12.186,33.573,3.207,33.573-13.906
		c0-157.714,0-315.416,0-473.135C311.093,88.957,289.634,79.986,277.52,92.166z"/>
	<path fill="#8C8C8C" d="M380.14,174.969c-23.835-8.834-34.021,29.193-10.465,37.919c132.313,49.045,132.426,229.355,0.095,278.466
		c-23.555,8.744-13.37,46.771,10.453,37.914C549.765,466.371,549.682,237.789,380.14,174.969z"/>
	<path fill="#8C8C8C" d="M410.392,98.976c-23.937-8.572-34.146,29.437-10.453,37.949c205.176,73.535,205.265,356.747,0.137,430.424
		c-23.691,8.5-13.477,46.525,10.453,37.924C652.671,518.302,652.612,185.815,410.392,98.976z"/>
</g>
</svg>
