<?xml version="1.0" encoding="utf-8"?>
<!-- Generator: Adobe Illustrator 15.0.0, SVG Export Plug-In  -->
<!DOCTYPE svg PUBLIC "-//W3C//DTD SVG 1.1//EN" "http://www.w3.org/Graphics/SVG/1.1/DTD/svg11.dtd" [
	<!ENTITY ns_flows "http://ns.adobe.com/Flows/1.0/">
]>
<svg version="1.1"
	 xmlns="http://www.w3.org/2000/svg" xmlns:xlink="http://www.w3.org/1999/xlink" xmlns:a="http://ns.adobe.com/AdobeSVGViewerExtensions/3.0/"
	 x="0px" y="0px" width="545px" height="481px" viewBox="21.977 19.405 545 481" enable-background="new 21.977 19.405 545 481"
	 xml:space="preserve">
<defs>
</defs>
<path fill="#FFFFFF" d="M253.859,5.202c-38.927,39.171-77.862,78.357-116.792,117.523c-39.623,0-79.245,0-118.867,0
	c-9.926,0-18.2,8.274-18.2,18.2c0,64.036,0,128.085,0,192.121c0,9.929,8.274,18.205,18.2,18.205c39.622,0,79.245,0,118.867,0
	c38.929,39.171,77.864,78.336,116.792,117.508c11.21,11.276,31.068,2.968,31.068-12.868c0-145.943,0-291.874,0-437.821
	C284.927,2.232,265.069-6.069,253.859,5.202z"/>
<path fill="#FFFFFF" d="M348.821,81.825c-22.058-8.175-31.482,27.014-9.685,35.089c122.438,45.384,122.542,212.235,0.087,257.682
	c-21.797,8.092-12.371,43.28,9.673,35.084C505.785,351.478,505.708,139.956,348.821,81.825z"/>
<path fill="#FFFFFF" d="M376.814,11.504c-22.15-7.933-31.598,27.24-9.673,35.116c189.862,68.047,189.943,330.121,0.127,398.298
	c-21.923,7.865-12.471,43.053,9.673,35.095C601.01,399.531,600.955,91.861,376.814,11.504z"/>
</svg>
