<?xml version="1.0" encoding="UTF-8"?>
<svg width="15px" height="11px" viewBox="0 0 15 11" version="1.1" xmlns="http://www.w3.org/2000/svg" xmlns:xlink="http://www.w3.org/1999/xlink">
    <!-- Generator: Sketch 41.2 (35397) - http://www.bohemiancoding.com/sketch -->
    <title>Aa</title>
    <desc>Created with Sketch.</desc>
    <defs></defs>
    <g id="Maquettes-finales" stroke="none" stroke-width="1" fill="none" fill-rule="evenodd">
        <g id="plumi/home" transform="translate(-1313.000000, -69.000000)" fill="#8C8C8C">
            <path d="M1318.317,75.269 L1315.912,75.269 L1316.744,72.799 C1316.78733,72.669 1316.82633,72.5216665 1316.861,72.357 C1316.89567,72.1923331 1316.93467,72.0363331 1316.978,71.889 C1317.01267,71.7243331 1317.056,71.551 1317.108,71.369 L1317.134,71.369 C1317.16867,71.551 1317.20767,71.7243331 1317.251,71.889 C1317.28567,72.0363331 1317.32467,72.1923331 1317.368,72.357 C1317.41133,72.5216665 1317.45467,72.669 1317.498,72.799 L1318.317,75.269 Z M1316.094,70.212 L1313.208,78.376 C1313.13867,78.5666665 1313.14517,78.7183333 1313.2275,78.831 C1313.30983,78.9436667 1313.45067,79 1313.65,79 L1314.248,79 C1314.56867,79 1314.77233,78.8483333 1314.859,78.545 L1315.496,76.634 L1318.733,76.634 L1319.383,78.558 C1319.46967,78.8526667 1319.67333,79 1319.994,79 L1320.592,79 C1320.79127,79 1320.93211,78.9436667 1321.0145,78.831 C1321.09683,78.7183333 1321.10333,78.5666667 1321.034,78.376 L1318.148,70.212 C1318.06133,69.9173331 1317.85767,69.77 1317.537,69.77 L1316.705,69.77 C1316.40167,69.77 1316.19801,69.9173331 1316.094,70.212 Z M1323.192,77.024 C1323.192,76.7813333 1323.27,76.5863333 1323.426,76.439 C1323.582,76.2916667 1323.77483,76.179 1324.0045,76.101 C1324.23417,76.023 1324.479,75.971 1324.739,75.945 C1324.999,75.919 1325.233,75.906 1325.441,75.906 L1325.714,75.906 L1325.714,76.153 C1325.714,76.3523333 1325.67717,76.556 1325.6035,76.764 C1325.52983,76.972 1325.428,77.1605 1325.298,77.3295 C1325.168,77.4985 1325.00983,77.635 1324.8235,77.739 C1324.63717,77.843 1324.42701,77.895 1324.193,77.895 C1323.86367,77.895 1323.6145,77.8061665 1323.4455,77.6285 C1323.2765,77.4508349 1323.192,77.2493349 1323.192,77.024 Z M1321.554,77.167 C1321.554,77.4703335 1321.6125,77.7433335 1321.7295,77.986 C1321.8465,78.2286665 1322.00467,78.4366667 1322.204,78.61 C1322.40333,78.7833333 1322.63517,78.9176667 1322.8995,79.013 C1323.16383,79.1083335 1323.44767,79.156 1323.751,79.156 C1324.115,79.156 1324.427,79.091 1324.687,78.961 C1324.947,78.831 1325.16367,78.688 1325.337,78.532 C1325.53633,78.35 1325.701,78.142 1325.831,77.908 L1325.857,77.908 C1325.84833,77.9253335 1325.844,77.9513335 1325.844,77.986 C1325.83533,78.0206665 1325.831,78.09 1325.831,78.194 L1325.831,78.454 C1325.831,78.818 1326.00867,79 1326.364,79 L1326.806,79 C1327.17,79 1327.352,78.818 1327.352,78.454 L1327.352,74.853 C1327.352,74.0123335 1327.1115,73.3623335 1326.6305,72.903 C1326.1495,72.4436665 1325.47567,72.214 1324.609,72.214 C1324.115,72.214 1323.68383,72.2768331 1323.3155,72.4025 C1322.94717,72.5281665 1322.65467,72.6473335 1322.438,72.76 C1322.13467,72.9246665 1322.06533,73.1673335 1322.23,73.488 L1322.36,73.735 C1322.50733,74.0296665 1322.75,74.1033335 1323.088,73.956 C1323.244,73.8693335 1323.44333,73.7848335 1323.686,73.7025 C1323.92867,73.6201665 1324.18867,73.579 1324.466,73.579 C1324.804,73.579 1325.09433,73.6656665 1325.337,73.839 C1325.57967,74.0123239 1325.701,74.3156574 1325.701,74.749 L1325.701,74.905 L1325.428,74.905 C1325.17667,74.905 1324.908,74.9158335 1324.622,74.9375 C1324.336,74.9591665 1324.05,75.0003335 1323.764,75.061 C1323.478,75.1216665 1323.20283,75.204 1322.9385,75.308 C1322.67417,75.412 1322.438,75.5485 1322.23,75.7175 C1322.022,75.8865 1321.85733,76.0901667 1321.736,76.3285 C1321.61467,76.5668333 1321.554,76.8463333 1321.554,77.167 Z" id="Aa"></path>
        </g>
    </g>
</svg>